<?xml version="1.0" encoding="UTF-8" standalone="no"?>
<!DOCTYPE svg PUBLIC "-//W3C//DTD SVG 1.1//EN" "http://www.w3.org/Graphics/SVG/1.1/DTD/svg11.dtd">
<svg width="100%" height="100%" viewBox="0 0 1440 900" version="1.1" xmlns="http://www.w3.org/2000/svg" xmlns:xlink="http://www.w3.org/1999/xlink" xml:space="preserve" xmlns:serif="http://www.serif.com/" style="fill-rule:evenodd;clip-rule:evenodd;stroke-linecap:round;stroke-linejoin:round;stroke-miterlimit:1.5;">
    <g transform="matrix(1,0,0,1,44.5,-1.5)">
        <g transform="matrix(1,0,0,1,0,736)">
            <g transform="matrix(800,0,0,800,0,0)">
                <path d="M0.889,-0.305C0.882,-0.242 0.86,-0.186 0.823,-0.138C0.786,-0.089 0.737,-0.052 0.677,-0.025C0.616,0.002 0.547,0.015 0.47,0.015C0.385,0.015 0.31,-0.001 0.246,-0.034C0.181,-0.067 0.131,-0.112 0.095,-0.171C0.059,-0.229 0.041,-0.297 0.041,-0.375C0.041,-0.453 0.059,-0.521 0.095,-0.58C0.131,-0.638 0.181,-0.683 0.246,-0.716C0.31,-0.749 0.385,-0.765 0.47,-0.765C0.547,-0.765 0.616,-0.752 0.677,-0.725C0.737,-0.698 0.786,-0.661 0.823,-0.613C0.86,-0.565 0.882,-0.509 0.889,-0.445L0.718,-0.445C0.711,-0.48 0.697,-0.511 0.675,-0.537C0.653,-0.562 0.625,-0.582 0.59,-0.596C0.555,-0.61 0.515,-0.617 0.469,-0.617C0.416,-0.617 0.371,-0.607 0.333,-0.588C0.294,-0.568 0.265,-0.54 0.244,-0.504C0.223,-0.467 0.213,-0.424 0.213,-0.375C0.213,-0.326 0.223,-0.283 0.244,-0.247C0.265,-0.21 0.294,-0.182 0.333,-0.163C0.371,-0.143 0.416,-0.133 0.469,-0.133C0.515,-0.133 0.555,-0.14 0.59,-0.154C0.625,-0.167 0.653,-0.187 0.675,-0.213C0.697,-0.238 0.711,-0.269 0.718,-0.305L0.889,-0.305Z" style="fill-rule:nonzero;"/>
            </g>
            <g transform="matrix(800,0,0,800,738.4,0)">
                <path d="M0.159,-0.432L0.701,-0.432L0.701,-0.287L0.159,-0.287L0.159,-0.432ZM0.718,-0.75L0.718,-0.604L0.161,-0.604L0.247,-0.691L0.247,-0L0.077,-0L0.077,-0.75L0.718,-0.75Z" style="fill-rule:nonzero;"/>
            </g>
        </g>
        <g transform="matrix(1,0,0,1,30,-23)">
            <circle cx="1229.5" cy="716.5" r="40.5" style="stroke:black;stroke-width:1px;"/>
        </g>
    </g>
</svg>
